{
  "accessors": [
    {
      "bufferView": 1,
      "componentType": 5126,
      "count": 65534,
      "max": [
        0.10469000041484833,
        0.09784000366926193,
        0.09822999686002731
      ],
      "min": [
        -0.10305999964475632,
        -0.1062299981713295,
        -0.17925000190734863
      ],
      "type": "VEC3"
    },
    {
      "bufferView": 1,
      "byteOffset": 786408,
      "componentType": 5126,
      "count": 65534,
      "max": [
        1.0,
        1.0,
        1.0
      ],
      "min": [
        -1.0,
        -1.0,
        -1.0
      ],
      "type": "VEC3"
    },
    {
      "bufferView": 0,
      "componentType": 5125,
      "count": 131850,
      "type": "SCALAR"
    },
    {
      "bufferView": 1,
      "byteOffset": 1572816,
      "componentType": 5126,
      "count": 65532,
      "max": [
        0.10469000041484833,
        0.09780000150203705,
        0.019990000873804092
      ],
      "min": [
        -0.10106000304222107,
        -0.10458000004291534,
        -0.17887000739574432
      ],
      "type": "VEC3"
    },
    {
      "bufferView": 1,
      "byteOffset": 2359200,
      "componentType": 5126,
      "count": 65532,
      "max": [
        1.0,
        1.0,
        1.0
      ],
      "min": [
        -1.0,
        -1.0,
        -1.0
      ],
      "type": "VEC3"
    },
    {
      "bufferView": 0,
      "byteOffset": 527400,
      "componentType": 5125,
      "count": 72654,
      "type": "SCALAR"
    },
    {
      "bufferView": 1,
      "byteOffset": 3145584,
      "componentType": 5126,
      "count": 20799,
      "max": [
        0.0954200029373169,
        0.09726999700069427,
        0.09651000052690506
      ],
      "min": [
        -0.09664999693632126,
        -0.093469999730587,
        -0.032669998705387115
      ],
      "type": "VEC3"
    },
    {
      "bufferView": 1,
      "byteOffset": 3395172,
      "componentType": 5126,
      "count": 20799,
      "max": [
        0.9988937377929688,
        0.9999982714653015,
        1.0
      ],
      "min": [
        -1.0,
        -1.0,
        -1.0
      ],
      "type": "VEC3"
    },
    {
      "bufferView": 0,
      "byteOffset": 818016,
      "componentType": 5125,
      "count": 22398,
      "type": "SCALAR"
    }
  ],
  "asset": {
    "extras": {
      "author": "JuanG3D (https://sketchfab.com/juang3d)",
      "license": "CC-BY-4.0 (http://creativecommons.org/licenses/by/4.0/)",
      "source": "https://sketchfab.com/3d-models/golden-ball-award-bce02dc608e04827b11ab9aa26316cc6",
      "title": "Golden Ball Award"
    },
    "generator": "Sketchfab-12.65.0",
    "version": "2.0"
  },
  "bufferViews": [
    {
      "buffer": 0,
      "byteLength": 907608,
      "name": "floatBufferViews",
      "target": 34963
    },
    {
      "buffer": 0,
      "byteLength": 3644760,
      "byteOffset": 907608,
      "byteStride": 12,
      "name": "floatBufferViews",
      "target": 34962
    }
  ],
  "buffers": [
    {
      "byteLength": 4552368,
      "uri": "scene.bin"
    }
  ],
  "materials": [
    {
      "doubleSided": true,
      "name": "Material.001",
      "pbrMetallicRoughness": {
        "baseColorFactor": [
          0.2704977910130658,
          0.20155625379439718,
          0.04970656598412723,
          1.0
        ],
        "roughnessFactor": 0.09
      }
    }
  ],
  "meshes": [
    {
      "name": "Pelota",
      "primitives": [
        {
          "attributes": {
            "NORMAL": 1,
            "POSITION": 0
          },
          "indices": 2,
          "material": 0,
          "mode": 4
        }
      ]
    },
    {
      "name": "Pelota",
      "primitives": [
        {
          "attributes": {
            "NORMAL": 4,
            "POSITION": 3
          },
          "indices": 5,
          "material": 0,
          "mode": 4
        }
      ]
    },
    {
      "name": "Pelota",
      "primitives": [
        {
          "attributes": {
            "NORMAL": 7,
            "POSITION": 6
          },
          "indices": 8,
          "material": 0,
          "mode": 4
        }
      ]
    }
  ],
  "nodes": [
    {
      "children": [
        1
      ],
      "matrix": [
        1.0,
        0.0,
        0.0,
        0.0,
        0.0,
        2.220446049250313e-16,
        -1.0,
        0.0,
        0.0,
        1.0,
        2.220446049250313e-16,
        0.0,
        0.0,
        0.0,
        0.0,
        1.0
      ],
      "name": "Sketchfab_model"
    },
    {
      "children": [
        2
      ],
      "name": "Root"
    },
    {
      "children": [
        3,
        4,
        5
      ],
      "matrix": [
        102.09108,
        0.0,
        0.0,
        0.0,
        0.0,
        102.09108,
        0.0,
        0.0,
        0.0,
        0.0,
        102.09108,
        0.0,
        0.0,
        0.0,
        0.0,
        1.0
      ],
      "name": "Pelota"
    },
    {
      "mesh": 0,
      "name": "Pelota"
    },
    {
      "mesh": 1,
      "name": "Pelota"
    },
    {
      "mesh": 2,
      "name": "Pelota"
    }
  ],
  "scene": 0,
  "scenes": [
    {
      "name": "Sketchfab_Scene",
      "nodes": [
        0
      ]
    }
  ]
}
